# Alias OBJ Model File
# Exported from SketchUp, (c) 2000-2012 Trimble Navigation Limited
# File units = millimeters

mtllib cubo.mtl

g Mesh1 Model

usemtl cubo
v 9.44 0 -9.47463
vt -0.371654 0.373017
vn 0 -1 -0
v 9.44 0 5.52537
vt -0.371654 -0.217534
v -5.56 0 5.52537
vt 0.218898 -0.217534
v -5.56 0 -9.47463
vt 0.218898 0.373017
f 1/1/1 2/2/1 3/3/1 4/4/1 

vt -0.217534 0
vn 1 0 -0
vt 0.373017 0
v 9.44 12 -9.47463
vt 0.373017 0.472441
v 9.44 12 5.52537
vt -0.217534 0.472441
f 2/5/2 1/6/2 5/7/2 6/8/2 

vt -0.371654 0
vn 0 0 -1
vt 0.218898 0
v -5.56 12 -9.47463
vt 0.218898 0.472441
vt -0.371654 0.472441
f 1/9/3 4/10/3 7/11/3 5/12/3 

vt -0.373017 0
vn -1 0 -0
vt 0.217534 0
v -5.56 12 5.52537
vt 0.217534 0.472441
vt -0.373017 0.472441
f 4/13/4 3/14/4 8/15/4 7/16/4 

vt -0.218898 0
vn 0 0 1
vt 0.371654 0
vt 0.371654 0.472441
vt -0.218898 0.472441
f 3/17/5 2/18/5 6/19/5 8/20/5 

vt 0.371654 -0.217534
vn 0 1 -0
vt 0.371654 0.373017
vt -0.218898 0.373017
vt -0.218898 -0.217534
f 6/21/6 5/22/6 7/23/6 8/24/6 

