# Alias OBJ Model File
# Exported from SketchUp, (c) 2000-2012 Trimble Navigation Limited
# File units = millimeters

mtllib Cubone.mtl

g Mesh1 Model

usemtl cubo
v 17.0199 0 -22.0703
vt -0.670076 0.868908
vn 0 -1 -0
v 17.0199 0 20.0797
vt -0.670076 -0.790541
v -29.4801 0 20.0797
vt 1.16063 -0.790541
v -29.4801 0 -22.0703
vt 1.16063 0.868908
f 1/1/1 2/2/1 3/3/1 4/4/1 

vt -0.790541 0
vn 1 0 -0
vt 0.868908 0
v 17.0199 30 -22.0703
vt 0.868908 1.1811
v 17.0199 30 20.0797
vt -0.790541 1.1811
f 2/5/2 1/6/2 5/7/2 6/8/2 

vt -0.670076 0
vn 0 0 -1
vt 1.16063 0
v -29.4801 30 -22.0703
vt 1.16063 1.1811
vt -0.670076 1.1811
f 1/9/3 4/10/3 7/11/3 5/12/3 

vt -0.868908 0
vn -1 0 -0
vt 0.790541 0
v -29.4801 30 20.0797
vt 0.790541 1.1811
vt -0.868908 1.1811
f 4/13/4 3/14/4 8/15/4 7/16/4 

vt -1.16063 0
vn 0 0 1
vt 0.670076 0
vt 0.670076 1.1811
vt -1.16063 1.1811
f 3/17/5 2/18/5 6/19/5 8/20/5 

vt 0.670076 -0.790541
vn 0 1 -0
vt 0.670076 0.868908
vt -1.16063 0.868908
vt -1.16063 -0.790541
f 6/21/6 5/22/6 7/23/6 8/24/6 

